<svg viewBox="0 0 16 16" xmlns="http://www.w3.org/2000/svg"><defs><style>@media (prefers-color-scheme: dark){#smspath{fill:#fff}}</style></defs><path id="smspath" d="M1.989 12c.373 0 .69-.059.948-.177.26-.118.469-.28.629-.486.152-.199.263-.44.331-.724A3.92 3.92 0 004 9.691c0-.288-.015-.544-.046-.768a2.038 2.038 0 00-.171-.603 1.468 1.468 0 00-.377-.447 2.232 2.232 0 00-.629-.337l-.891-.343a1.862 1.862 0 01-.36-.176.623.623 0 01-.2-.21.716.716 0 01-.086-.277 3.613 3.613 0 01-.017-.386c0-.133.011-.26.034-.382a.916.916 0 01.126-.326.756.756 0 01.24-.22.754.754 0 01.388-.089c.298 0 .509.094.635.282.125.188.188.41.188.668v.254H4V5.78c0-.457-.175-.862-.526-1.215a2.05 2.05 0 00-.623-.41A1.991 1.991 0 002.057 4a2.1 2.1 0 00-.886.171 1.722 1.722 0 00-.611.459 1.89 1.89 0 00-.377.685 2.77 2.77 0 00-.126.84c0 .493.086.904.257 1.232.172.328.509.59 1.012.79l.834.331c.145.06.261.114.349.166a.633.633 0 01.211.199.853.853 0 01.091.32 6.105 6.105 0 01.006.989.85.85 0 01-.108.37.607.607 0 01-.258.238c-.11.055-.264.083-.462.083-.298 0-.509-.083-.635-.249a.9.9 0 01-.188-.558v-.353H0v.42c0 .265.051.51.154.734a1.883 1.883 0 001.046.989c.244.096.507.144.789.144zM6.109 12V7.135h.021l1.087 3.438h.555L8.87 7.135h.021V12H10V4H8.924L7.51 8.236h-.022L6.065 4H5v8zM13.989 12c.373 0 .69-.059.948-.177.26-.118.469-.28.629-.486.152-.199.263-.44.331-.724A3.92 3.92 0 0016 9.691c0-.288-.015-.544-.046-.768a2.038 2.038 0 00-.171-.603 1.468 1.468 0 00-.377-.447 2.232 2.232 0 00-.629-.337l-.891-.343a1.862 1.862 0 01-.36-.176.623.623 0 01-.2-.21.716.716 0 01-.086-.277 3.613 3.613 0 01-.017-.386c0-.133.011-.26.034-.382a.916.916 0 01.126-.326.756.756 0 01.24-.22.754.754 0 01.388-.089c.298 0 .509.094.635.282.125.188.188.41.188.668v.254H16V5.78c0-.457-.175-.862-.526-1.215a2.05 2.05 0 00-.623-.41A1.991 1.991 0 0014.057 4a2.1 2.1 0 00-.886.171 1.722 1.722 0 00-.611.459 1.89 1.89 0 00-.377.685 2.77 2.77 0 00-.126.84c0 .493.086.904.257 1.232.172.328.509.59 1.012.79l.834.331c.145.06.261.114.349.166a.633.633 0 01.211.199.853.853 0 01.091.32 6.105 6.105 0 01.006.989.85.85 0 01-.108.37.607.607 0 01-.258.238c-.11.055-.264.083-.462.083-.298 0-.509-.083-.635-.249a.9.9 0 01-.188-.558v-.353H12v.42c0 .265.051.51.154.734a1.883 1.883 0 001.046.989c.244.096.507.144.789.144z" fill="#000" fill-rule="nonzero"/></svg>
